<?xml version="1.0" encoding="UTF-8"?><svg id="Layer_1" xmlns="http://www.w3.org/2000/svg" viewBox="0 0 640 452"><defs><style>.cls-1,.cls-2,.cls-3,.cls-4,.cls-5,.cls-6,.cls-7{fill:none;}.cls-8,.cls-2,.cls-3,.cls-9,.cls-5,.cls-10,.cls-11,.cls-12,.cls-13,.cls-14,.cls-15,.cls-7,.cls-16,.cls-17{stroke:#010101;}.cls-8,.cls-2,.cls-9{fill-rule:evenodd;}.cls-8,.cls-2,.cls-9,.cls-4,.cls-5,.cls-10,.cls-11,.cls-12,.cls-18,.cls-13,.cls-14,.cls-6,.cls-7{stroke-miterlimit:10;}.cls-8,.cls-9,.cls-10,.cls-18,.cls-13,.cls-15,.cls-16{fill:#fff;}.cls-8,.cls-4,.cls-5,.cls-10{stroke-linecap:round;}.cls-3,.cls-16,.cls-17{stroke-linejoin:round;}.cls-19,.cls-14{fill:#e1e1dd;}.cls-4,.cls-18,.cls-6{stroke:#231f20;}.cls-11{stroke-width:.5px;}.cls-11,.cls-12{fill:#010101;}.cls-17{fill:#414141;}</style></defs><path vector-effect="non-scaling-stroke" class="cls-7" d="m375.19,322.8c25.68,12.83,54.3,27.05,65.14,29.73,0,0,31.13,10.66,67.45,0"/><path vector-effect="non-scaling-stroke" class="cls-7" d="m100.4,301.14s16.42,5.47,57.47,4.87c22.6-.33,40.58.55,56.6,3.49"/><path vector-effect="non-scaling-stroke" class="cls-7" d="m98.95,282.64s16.42,5.47,57.47,4.87c41.05-.61,66.9,2.82,93.36,15.25"/><polyline class="cls-7" points="339.2 81.47 313.75 142.9 215.41 368.05"/><path vector-effect="non-scaling-stroke" class="cls-7" d="m148.24,135.04h-21.27c-.6-.59-1.15-1.16-1.64-1.72-.07-.08-.14-.16-.2-.23-.06-.07-.13-.14-.19-.21-3.37-3.92-4.57-7.15-5.75-10.28-1.39-3.76-2.85-7.64-7.92-12.68-3.31-3.29-6.03-4.96-8.52-6.06-.09-.04-.18-.07-.25-.1-.09-.05-.18-.08-.25-.11-1.15-.49-2.27-.87-3.37-1.24-.62-.21-1.24-.41-1.88-.64-.12-.04-.23-.09-.34-.13s-.21-.08-.32-.13c-2.16-.83-4.46-1.97-7.15-4.19-.03-.02-.06-.05-.09-.07,5.1-30.26,23.96-55.83,49.94-70.07-.02.08-.03.16-.05.23-.42,1.86-.99,3.45-1.54,5.02-1.35,3.78-2.73,7.68-2.19,15.1.54,7.41,2.49,11.04,4.36,14.55,1.86,3.45,3.77,7.03,4.31,14.34.53,7.3-.83,11.16-2.16,14.9-1.34,3.78-2.73,7.69-2.19,15.1.48,6.28,1.94,9.84,3.52,12.91.05.1.1.19.14.28.05.1.09.18.14.27.18.37.37.72.57,1.07,1.82,3.38,3.68,6.86,4.27,13.8l.02.31Z"/><path vector-effect="non-scaling-stroke" class="cls-17" d="m143.5,138.47v-5.38h-34.44v5.38h34.44Z"/><path vector-effect="non-scaling-stroke" class="cls-17" d="m101.37,100.02l-5.14,1.74,11.68,36.69h5.13l-11.67-38.43Z"/><path vector-effect="non-scaling-stroke" class="cls-13" d="m238.91,95.97l-10.98,17.73.35.24,10.98-17.73-.35-.24Z"/><path vector-effect="non-scaling-stroke" class="cls-14" d="m154.36,138.45c-7.28,0-19.05-6.36-15.98-9.49,1.91-1.98,9.86,6.09,9.86,6.09l6.12,3.4h0Z"/><path vector-effect="non-scaling-stroke" class="cls-14" d="m141.09,118.71c-4.29-1.69-9.23-6.35-10.86-7.96-.35-.35-.93-.32-1.22.09-.97,1.32-1.65,4.83,8.27,11.7l3.82-3.83h-.01Z"/><path vector-effect="non-scaling-stroke" class="cls-14" d="m136.7,119.53l-7.04,7.01c-.48.48-.43,1.29.11,1.69.9.71,2.49,1.3,4.63-.25,3.49-2.54,2.31-8.45,2.31-8.45h0Z"/><path vector-effect="non-scaling-stroke" class="cls-14" d="m154.35,121.23c-5.08,0-8.9-.54-13.26-2.52-2.06-.94-4.47.09-5.34,2.27l-3.44,8.51c-.29.72.18,1.55.93,1.6,1.36.12,3.64-1.02,6.06-7.81l2.49,1.71s.54,13.46,12.56,13.46v-17.22h-.01Z"/><path vector-effect="non-scaling-stroke" class="cls-13" d="m172.32,121.25h-10.38v17.21h10.38v-17.21Z"/><path vector-effect="non-scaling-stroke" class="cls-13" d="m160.66,118.59h-5.01c-.71,0-1.28.6-1.28,1.33s.57,1.34,1.28,1.34h5.01c.71,0,1.28-.6,1.28-1.34s-.57-1.33-1.28-1.33Z"/><path vector-effect="non-scaling-stroke" class="cls-13" d="m161.93,121.25h-7.57v17.21h7.57v-17.21Z"/><path vector-effect="non-scaling-stroke" class="cls-14" d="m252.58,90.81c-5.96-12.86-19.7-26.34-22.7-32.77-5.07-10.86-2.9-20.36-8.58-22.97-5.59-2.57-10.22,1.1-13.58,3.5-3.36,2.41-9.22,8.75-6.5,16.63.08.23.15.46.23.7-.34,1.43-.75,3.41-.97,5.29-.13,1.16,1.14,1.93,2.04,1.22l.35-.27c.88,5.21,1.33,9.58,4.84,10.97,5,1.99,11.28-7.2,11.28-7.2l3.77,8.97s-2.52,2.19-8.79,12.69c-6.28,10.49-16.54,27.99-16.54,27.99h-21.71c-3.83,0-6.96,3.26-6.96,7.28v15.62h31.33c7.51,0,14.53-3.9,18.75-10.39l9.26-14.25s-8.92,23.22-.03,29.87l36.96-.42c0-17.43-6.49-39.59-12.44-52.46h-.01Z"/><path vector-effect="non-scaling-stroke" class="cls-15" d="m228.07,52.75c-1.29.45-2.52.64-3.7.64-3.73,0-6.95-1.95-9.35-4.1-2.41-2.14-3.96-4.43-4.35-5.05l-.17-.27-.3.13c-2.42,1.08-4.63,1.41-6.24,1.46-1.21.04-2.08-.08-2.42-.13,1.68-4.39,5.21-7.18,6.27-7.93h0l.47-.34h0c3.36-2.42,7.73-5.54,12.94-3.15l.16-.33-.16.33c1.55.72,2.51,1.96,3.2,3.67.69,1.72,1.1,3.85,1.56,6.3h0c.49,2.61,1.05,5.59,2.09,8.76Z"/><path vector-effect="non-scaling-stroke" class="cls-13" d="m222.78,74.86c3.56-3.63,9.35-7.62,12.91-8.45l-3.66-4.85s-7.66,3.44-11.54,7.88c-1.39,1.58-1.71,2.96-1.55,4.1.26,1.92,2.51,2.68,3.84,1.32Z"/><path vector-effect="non-scaling-stroke" class="cls-14" d="m273.36,95.18v72.73c0,15.83-12.26,28.66-27.4,28.66h-48.11c-2.31,0-.44-2.2-.44-4.61s-1.87-4.11.44-4.11h46.26c11.55,0,20.93-9.79,20.93-21.88v-70.79c0-2.41,1.87-4.36,4.17-4.36s4.17,1.95,4.17,4.36Z"/><path vector-effect="non-scaling-stroke" class="cls-19" d="m213.68,49.81s1.92-3.73,4.6-2.36c3.39,1.73,1.37,6.16,0,6.95l-4.6-4.6h0Z"/><path vector-effect="non-scaling-stroke" class="cls-11" d="m218.37,54.58l-.19-.38c.73-.43,1.78-2.14,1.75-3.84-.02-.85-.34-2.01-1.74-2.72-2.47-1.26-4.24,2.13-4.32,2.27l-.38-.2s2.05-3.9,4.87-2.46c1.59.82,1.95,2.14,1.98,3.1.04,1.76-1.01,3.68-1.96,4.23h-.01Z"/><path vector-effect="non-scaling-stroke" class="cls-12" d="m232.67,67.55l-.34.25-3.14-4.79.34-.25,3.14,4.79Zm-6.15-2.98l-.34.25,3.12,4.76.34-.25-3.12-4.76Zm.16,6.88l-3.15-4.79-.33.24,3.15,4.8.33-.25Zm-2.74,2.35l-2.94-4.83-.35.24,2.94,4.83.35-.24Z"/><path vector-effect="non-scaling-stroke" class="cls-1" d="m285.03,113.74c0,27.22-11.02,51.85-28.87,69.7-1.19,1.19-2.41,2.36-3.66,3.49-1.25,1.14-2.53,2.24-3.84,3.3-.44.35-.88.71-1.31,1.05-.45.35-.89.69-1.34,1.03s-.9.68-1.35,1.01c-.45.33-.91.66-1.37.99-.45.33-.92.65-1.38.96-.33.23-.67.45-1,.68-.36.24-.72.48-1.08.71-1.15.75-2.31,1.46-3.49,2.16l-.57.33c-.96.56-1.93,1.1-2.91,1.62-.5.28-1,.54-1.51.8-.37.19-.74.38-1.11.57-.51.25-1.02.5-1.54.75-2.01.96-4.05,1.85-6.14,2.67-2.7,1.06-5.46,2.01-8.27,2.84-.55.16-1.11.32-1.66.47-.56.16-1.11.3-1.67.45-1.89.49-3.78.92-5.7,1.28-.49.1-.97.19-1.46.27-.47.09-.94.17-1.4.24-.58.1-1.16.19-1.74.27-2.8.41-5.64.69-8.5.86-.46.02-.92.05-1.38.07-.37.02-.73.03-1.1.04-.49.02-.98.03-1.47.04-.6,0-1.21.02-1.81.02s-1.21,0-1.81-.02c-.5,0-.99-.02-1.5-.04-.36,0-.72-.02-1.07-.04-.45-.02-.92-.04-1.37-.07-2.08-.12-4.14-.3-6.18-.55-.32-.04-.64-.08-.97-.13-1.53-.19-3.05-.43-4.55-.7-.27-.05-.54-.1-.81-.15-6.19-1.15-12.18-2.9-17.9-5.15-.49-.2-.99-.4-1.48-.6-.23-.09-.46-.19-.69-.29-.27-.11-.53-.22-.8-.34-.02-.02-.06-.02-.09-.04-.24-.1-.48-.21-.72-.31-.18-.08-.35-.16-.53-.24-.3-.14-.6-.27-.9-.41-.29-.14-.59-.28-.89-.41-.1-.05-.19-.09-.29-.14-.31-.15-.61-.29-.92-.45-1.15-.57-2.29-1.15-3.41-1.76-1-.54-1.98-1.1-2.96-1.67-1.08-.63-2.14-1.28-3.18-1.96-.67-.43-1.32-.87-1.98-1.31-.37-.25-.74-.49-1.1-.74-.75-.52-1.49-1.06-2.23-1.6-.24-.18-.48-.35-.72-.53-.81-.6-1.6-1.22-2.39-1.85-.13-.11-.27-.21-.4-.32-13.24-10.66-23.68-24.67-30-40.76-.03-.07-.06-.14-.09-.21-.03-.08-.06-.16-.09-.23-1.35-3.46-2.49-7.01-3.44-10.65-.02-.07-.04-.14-.06-.21-.02-.08-.03-.15-.06-.22-2.01-7.85-3.07-16.07-3.07-24.54,0-5.63.47-11.15,1.38-16.52,5.1-30.26,23.96-55.83,49.94-70.07,14.06-7.7,30.19-12.07,47.34-12.07,1.26,0,2.52.02,3.76.07,43.98,1.65,80.59,32.08,91.55,73.02,2.18,8.16,3.34,16.73,3.34,25.57Z"/><path vector-effect="non-scaling-stroke" class="cls-6" d="m284.94,113.83c0,15.66-3.65,30.47-10.15,43.62-16.09,32.56-49.64,54.94-88.41,54.94s-72.35-22.41-88.43-54.99c-6.49-13.14-10.13-27.93-10.13-43.57,0-54.44,44.13-98.56,98.56-98.56s98.56,44.13,98.56,98.56Z"/><path vector-effect="non-scaling-stroke" class="cls-7" d="m162.95,209.68s-.88-37.64,6.63-43.03c7.5-5.39,22.81-8.81,22.81-8.81l19-4.57"/><line class="cls-4" x1="199.73" y1="211.49" x2="201.73" y2="196.57"/><path vector-effect="non-scaling-stroke" class="cls-18" d="m130.14,71.94l1.38,6.39c.05.08.15.15.27.2l4.13.6c.43.19.43.56,0,.75l-3.78.87c-.12.05-.21.12-.27.2l-1.49,6.13c-.27.41-1.29.41-1.57,0l-1.65-6.26c-.05-.08-.15-.15-.27-.2l-3.43-.73c-.43-.19-.43-.56,0-.75l3.34-.49c.12-.05.21-.12.27-.2l1.5-6.5c.27-.41,1.29-.41,1.57,0Z"/><circle class="cls-18" cx="119.73" cy="64.5" r="5.81"/><line class="cls-7" x1="90.91" y1="138.72" x2="224.75" y2="138.72"/><line class="cls-7" x1="96.22" y1="153.27" x2="221.5" y2="153.27"/><path vector-effect="non-scaling-stroke" class="cls-5" d="m204.05,65.87s3.23.38,3.8-3.52"/><circle class="cls-14" cx="417.75" cy="50.01" r="40.81"/><polyline class="cls-7" points="407.56 89.53 382.11 150.95 283.76 376.1"/><circle class="cls-7" cx="495.24" cy="138.36" r="40.81"/><circle class="cls-14" cx="519.72" cy="228.9" r="40.81"/><circle class="cls-7" cx="478.66" cy="302.35" r="21.33"/><path vector-effect="non-scaling-stroke" class="cls-7" d="m389.85,316.72c21.51,10.66,42.55,20.72,51.49,22.93,0,0,31.13,10.66,67.45,0"/><path vector-effect="non-scaling-stroke" class="cls-7" d="m194.37,306.48s16.42,5.47,57.47,4.87c22.6-.33,40.58.55,56.6,3.49,13.09,2.4,24.86,6.17,36.75,11.76,8.75,4.11,20.71,10.11,33.39,16.45,25.68,12.83,54.3,27.05,65.14,29.73,0,0,31.13,10.66,67.45,0"/><line class="cls-7" x1="356.59" y1="230.96" x2="478.92" y2="230.96"/><line class="cls-7" x1="436.87" y1="230.96" x2="465.19" y2="285.82"/><path vector-effect="non-scaling-stroke" class="cls-13" d="m417.78,48.16h0c-1.52,0-2.76,1.23-2.76,2.76v26.36c0,1.52,1.23,2.76,2.76,2.76h0c1.52,0,2.76-1.23,2.76-2.76v-26.36c0-1.52-1.23-2.76-2.76-2.76Z"/><path vector-effect="non-scaling-stroke" class="cls-13" d="m415.47,42.02c0-2.04-2.33-4.36-2.33-4.36,0,0,3.25-18.74,3.44-19.43.19-.69,1.21-.61,1.21-.61,0,0,1.02-.09,1.19.61.19.69,3.44,19.43,3.44,19.43,0,0-2.32,2.32-2.32,4.36h-4.63Z"/><path vector-effect="non-scaling-stroke" class="cls-13" d="m415.59,47.52c-1.8.95-2.77,4.09-2.77,4.09,0,0-18.1,5.85-18.8,6.01-.7.16-1.1-.79-1.1-.79,0,0-.55-.86-.02-1.34.53-.49,15.59-12.1,15.59-12.1,0,0,3.13.97,4.93.02l2.16,4.1h0Z"/><path vector-effect="non-scaling-stroke" class="cls-13" d="m419.84,47.52c1.8.95,2.77,4.09,2.77,4.09,0,0,18.1,5.85,18.8,6.01.7.16,1.1-.79,1.1-.79,0,0,.55-.86.02-1.34-.53-.49-15.59-12.1-15.59-12.1,0,0-3.13.97-4.93.02l-2.16,4.1h0Z"/><path vector-effect="non-scaling-stroke" class="cls-13" d="m417.78,49.51c2.17,0,3.94-1.77,3.94-3.95s-1.77-3.95-3.94-3.95-3.95,1.77-3.95,3.95,1.77,3.95,3.95,3.95Z"/><path vector-effect="non-scaling-stroke" class="cls-9" d="m470.52,304.52h8.52c.1,0,.3.1.4.2.1.2.2.4.1.6l-1.7,7.93,9.62-13.54h-8.42c-.2,0-.41-.1-.5-.2-.1-.1-.2-.3-.1-.5l1.7-7.93-9.62,13.44h0Z"/><path vector-effect="non-scaling-stroke" class="cls-7" d="m542,245.98c0-1.64-1.33-2.96-2.96-2.96-.45,0-.88.11-1.27.29v-28.25c.37.17.78.26,1.21.26,1.64,0,2.96-1.33,2.96-2.96,0-1.1-.61-2.05-1.5-2.56.9-.29,1.56-1.12,1.56-2.12,0-1.23-1-2.23-2.23-2.23-.91,0-1.68.54-2.03,1.32-.53-.8-1.44-1.32-2.46-1.32-1.64,0-2.96,1.33-2.96,2.96,0,.1.02.19.03.28h-24.5s.01-.09.01-.13c0-1.64-1.33-2.96-2.96-2.96-1.1,0-2.05.61-2.56,1.5-.29-.9-1.12-1.56-2.12-1.56-1.23,0-2.23,1-2.23,2.23,0,.91.54,1.68,1.32,2.03-.8.53-1.32,1.44-1.32,2.46,0,1.64,1.33,2.96,2.96,2.96.19,0,.37-.02.54-.05v27.8c-.16-.03-.32-.05-.49-.05-1.64,0-2.96,1.33-2.96,2.96,0,1.1.61,2.05,1.5,2.56-.9.29-1.56,1.12-1.56,2.12,0,1.23,1,2.23,2.23,2.23.91,0,1.68-.54,2.03-1.32.53.8,1.44,1.32,2.46,1.32,1.53,0,2.78-1.17,2.93-2.66h24.53c.22,1.42,1.44,2.52,2.92,2.52,1.1,0,2.05-.61,2.56-1.5.29.9,1.12,1.56,2.12,1.56,1.23,0,2.23-1,2.23-2.23,0-.91-.54-1.68-1.32-2.03.8-.53,1.32-1.44,1.32-2.46Zm-37.11-.13v-32.49h29.18v32.49h-29.18Zm33.11,3.28s0,0,0-.01c0,0,.01,0,.02,0,0,0,0,0-.01.01Z"/><polyline class="cls-5" points="505.26 236.32 515.19 228.03 520.62 231.96"/><polyline class="cls-5" points="519.07 234.04 527.6 225.6 533.54 229.63"/><circle class="cls-5" cx="513.33" cy="220.6" r="3.29"/><path vector-effect="non-scaling-stroke" class="cls-7" d="m465.81,166.63s-10.85,27.33,18.33,42.3"/><path vector-effect="non-scaling-stroke" class="cls-7" d="m516.62,336.56s24.33-7.51,25.38-40.85c-.99-11.52-2.45-15.47-12.69-26.7"/><rect class="cls-13" x="195.16" y="143.27" width="251.22" height="202.93" rx="15.46" ry="15.46"/><path vector-effect="non-scaling-stroke" class="cls-7" d="m458.56,50.01s36.9,4.45,43.35,48.09"/><path vector-effect="non-scaling-stroke" class="cls-6" d="m504.23,128.89v29.61c0,4-4.26,7.26-9.52,7.26s-9.52-3.25-9.52-7.26v-29.61h19.03Z"/><line class="cls-5" x1="485.19" y1="145.43" x2="489.29" y2="145.43"/><line class="cls-5" x1="485.19" y1="151.08" x2="487.24" y2="151.08"/><line class="cls-5" x1="485.19" y1="156.73" x2="489.29" y2="156.73"/><circle class="cls-18" cx="495.13" cy="116.05" r="5.06"/><circle class="cls-18" cx="499.82" cy="111" r="2.74"/><circle class="cls-18" cx="505.7" cy="119.56" r="3.51"/><rect class="cls-10" x="483.26" y="126.26" width="22.52" height="4.51" rx="1.48" ry="1.48"/><path vector-effect="non-scaling-stroke" class="cls-6" d="m485.19,137.25s13.14,7.49,19.03,2.29"/><circle class="cls-17" cx="529.31" cy="116.05" r="3.83"/><circle class="cls-13" cx="516.62" cy="336.56" r="3.83"/><circle class="cls-7" cx="448.29" cy="374.51" r="3.83"/><circle class="cls-17" cx="461.36" cy="376.17" r="3.83"/><path vector-effect="non-scaling-stroke" class="cls-17" d="m569.43,279.37c5.72,0,10.36-4.64,10.36-10.36s-4.64-10.36-10.36-10.36-10.36,4.64-10.36,10.36,4.64,10.36,10.36,10.36Z"/><path vector-effect="non-scaling-stroke" class="cls-17" d="m136.83,361.3c8.33,0,15.09-6.76,15.09-15.09s-6.76-15.09-15.09-15.09-15.09,6.76-15.09,15.09,6.76,15.09,15.09,15.09Z"/><circle class="cls-14" cx="195.54" cy="401.3" r="40.81"/><path vector-effect="non-scaling-stroke" class="cls-2" d="m196.77,415.16h-14.35c-.36,0-.72-.36-.72-.72v-7.91c-3.83-2.4-5.74-6.23-5.74-11.39,0-8.15,6.34-14.5,14.35-14.5,6.7,0,13.75,4.56,13.75,12.11,0,.24.6,1.32.96,2.04,1.08,1.8,2.15,3.84,2.03,5.39v.24c0,.24,0,.72-.24,1.08-.24.48-.84.72-1.32.72h-1.55c0,1.68-.12,5.39-1.32,6.59-1.08,1.08-2.63,1.32-5.14,1.32v4.32c0,.36-.36.72-.72.72Z"/><path vector-effect="non-scaling-stroke" class="cls-2" d="m207.18,422.15h-14.35c-.36,0-.72-.36-.72-.72v-7.91c-3.83-2.4-5.74-6.23-5.74-11.39,0-8.15,6.34-14.5,14.35-14.5,6.7,0,13.75,4.56,13.75,12.11,0,.24.6,1.32.96,2.04,1.08,1.8,2.15,3.84,2.03,5.39v.24c0,.24,0,.72-.24,1.08-.24.48-.84.72-1.32.72h-1.55c0,1.68-.12,5.39-1.32,6.59-1.08,1.08-2.63,1.32-5.14,1.32v4.32c0,.36-.36.72-.72.72Z"/><path vector-effect="non-scaling-stroke" class="cls-2" d="m186.37,402.13c0,5.15,1.91,8.99,5.74,11.39v1.64h4.65c.36,0,.72-.36.72-.72v-4.32c2.51,0,4.07-.24,5.14-1.32,1.2-1.2,1.32-4.91,1.32-6.59h1.55c.48,0,1.08-.24,1.32-.72.24-.36.24-.84.24-1.08v-.24c.12-1.56-.96-3.6-2.03-5.39-.36-.72-.96-1.8-.96-2.04,0-1.84-.42-3.5-1.15-4.96-.73-.11-1.46-.16-2.19-.16-8.01,0-14.35,6.35-14.35,14.5h0Z"/><path vector-effect="non-scaling-stroke" class="cls-7" d="m194.71,406.48h.22c.15,0,.3-.07.37-.22l5.16-7.57c.07-.15.07-.29,0-.44-.07-.15-.22-.22-.37-.22h-1.72l1.27-2.91c.07-.15.07-.29,0-.44-.07-.07-.22-.15-.37-.15h-3.21c-.15,0-.3.07-.37.22l-2.62,6.11c-.07.15,0,.29.07.44.07.15.22.22.37.22h1.87l-.9,4.44c-.07.22.07.44.22.51h0Z"/><path vector-effect="non-scaling-stroke" class="cls-16" d="m109.83,206.35l2.4,11.13c.09.14.25.26.46.36l7.18,1.04c.74.33.74.97,0,1.3l-6.57,1.51c-.21.09-.37.22-.46.36l-2.59,10.66c-.48.71-2.25.71-2.73,0l-2.87-10.89c-.09-.14-.25-.26-.46-.36l-5.97-1.28c-.74-.33-.74-.97,0-1.3l5.81-.85c.21-.09.37-.22.46-.36l2.61-11.31c.48-.71,2.25-.71,2.73,0Z"/><circle class="cls-17" cx="147.45" cy="287.49" r="3.83"/><circle class="cls-7" cx="123.8" cy="304.65" r="3.83"/><circle class="cls-13" cx="337.61" cy="87.45" r="17.73"/><circle class="cls-14" cx="283.76" cy="375.37" r="8.65"/><circle class="cls-17" cx="86.94" cy="194.39" r="3.83"/><path vector-effect="non-scaling-stroke" class="cls-7" d="m98.95,266.89s16.42,5.47,57.47,4.87c41.05-.61,66.9,2.82,93.36,15.25"/><circle class="cls-7" cx="127.64" cy="270.72" r="3.83"/><circle class="cls-17" cx="215.51" cy="275.52" r="3.83"/><circle class="cls-7" cx="228.03" cy="278.39" r="3.83"/><circle class="cls-13" cx="155.53" cy="395.86" r="3.83"/><path vector-effect="non-scaling-stroke" class="cls-8" d="m332.02,93.11c-.19,0-1.55-.06-2.48-1.01-.56-.5-.87-1.26-.87-2.2,0-1.01.43-1.89,1.18-2.51.62-.5,1.43-.75,2.24-.69.37-2.77,2.73-4.9,5.53-4.9,2.05,0,3.97,1.19,4.97,3.02.99,0,1.99.44,2.73,1.13.81.82,1.24,1.89,1.24,3.02,0,3.58-3.6,4.15-3.66,4.15h-10.87Z"/><rect class="cls-14" x="214.65" y="250.96" width="12.25" height="12.25" rx="1.73" ry="1.73"/><rect class="cls-14" x="214.91" y="184.84" width="12.25" height="12.25" rx="1.73" ry="1.73"/><rect class="cls-17" x="214.65" y="301.11" width="12.25" height="12.25" rx="1.73" ry="1.73"/><rect class="cls-17" x="214.65" y="219.52" width="12.25" height="12.25" rx="1.73" ry="1.73"/><line class="cls-3" x1="195.16" y1="163.03" x2="446.38" y2="163.03"/><line class="cls-3" x1="195.16" y1="333.22" x2="446.38" y2="333.22"/><path vector-effect="non-scaling-stroke" class="cls-17" d="m445.68,155.7v7.45h-251.22v-7.45c0-6.8,5.51-12.3,12.3-12.3h226.62c6.8,0,12.3,5.51,12.3,12.3Z"/><path vector-effect="non-scaling-stroke" class="cls-14" d="m446.38,333.54v.68c0,6.8-5.51,12.3-12.3,12.3h-226.62c-6.79,0-12.3-5.51-12.3-12.3v-.68h251.22Z"/><line class="cls-14" x1="244.56" y1="185.39" x2="417.78" y2="185.39"/><line class="cls-14" x1="244.56" y1="197.09" x2="360.46" y2="197.09"/><line class="cls-14" x1="244.56" y1="220.88" x2="395.59" y2="220.88"/><line class="cls-14" x1="244.56" y1="252.31" x2="339.2" y2="252.31"/><line class="cls-14" x1="352.78" y1="252.31" x2="372.01" y2="252.31"/><line class="cls-14" x1="243.83" y1="263.21" x2="263.07" y2="263.21"/><line class="cls-14" x1="246.2" y1="302.17" x2="420.53" y2="302.17"/><line class="cls-14" x1="246.2" y1="312.69" x2="362.4" y2="312.69"/></svg>