<svg width="60" height="80" viewBox="0 0 60 80" fill="none" xmlns="http://www.w3.org/2000/svg">
<path d="M25.77 50.23C21.19 54.82 16.61 59.4 12.02 63.99C10.88 65.14 9.74 66.28 8.59 67.43V71.35L0.02 79.92H0V65.9C0.07 65.45 0.2 64.82 0.52 64.13C0.83 63.48 1.19 62.98 1.48 62.65C1.58 62.55 1.67 62.46 1.77 62.36C1.82 62.29 1.88 62.24 1.95 62.18C7.9 56.22 13.85 50.25 19.8 44.29L25.77 50.23Z" fill="#A51FC1"/>
<path d="M59.79 65.5V79.91H59.77L51.47 71.61V67.43C51.21 67.17 50.89 66.86 50.52 66.48C50.01 65.97 49.63 65.6 49.57 65.53C49.01 64.98 43.96 59.96 29.95 46.06C27.95 44.08 25.96 42.1 23.97 40.13C10.99 27.18 2.09 18.35 1.23 17.57C1.17 17.52 0.93 17.31 0.7 16.98C0.0700001 16.09 0 15.11 0 14.64V0L8.59 8.58V12.95C15.71 20.03 22.84 27.1 29.96 34.17L35.95 40.11C48.48 52.5 57.59 61.56 58.51 62.5C58.7 62.7 59.17 63.19 59.48 63.95C59.76 64.65 59.79 65.25 59.79 65.51V65.5Z" fill="#A51FC1"/>
<path d="M59.79 0C59.79 4.88 59.79 9.74 59.79 14.62C59.79 14.96 59.73 15.41 59.56 15.87C59.26 16.74 58.72 17.3 58.51 17.52C57.63 18.41 50.4 25.69 40.4 35.63C38.4 33.66 36.41 31.69 34.41 29.71C39.39 24.73 44.36 19.76 49.35 14.78L51.5 12.63V8.3L59.79 0Z" fill="#A51FC1"/>
</svg>
