<?xml version="1.0" encoding="UTF-8"?>
<svg id="Layer_2" data-name="Layer 2" xmlns="http://www.w3.org/2000/svg" viewBox="0 0 116.05 28">
  <defs>
    <style>
      .cls-1 {
        fill: #fff;
      }

      .cls-2 {
        fill: #a51fc1;
      }
    </style>
  </defs>
  <g id="Layer_1-2" data-name="Layer 1">
    <path class="cls-2" d="M9.03,17.6c-1.6,1.61-3.21,3.21-4.82,4.82-.4.4-.8.8-1.2,1.21v1.37L0,28h0v-4.91c.02-.16.07-.38.18-.62.11-.23.23-.4.34-.52.04-.04.07-.07.1-.1.02-.02.04-.04.06-.06,2.08-2.09,4.17-4.18,6.25-6.27l2.09,2.08Z"/>
    <path class="cls-2" d="M20.95,22.95v5.05h0l-2.91-2.91v-1.46c-.09-.09-.2-.2-.33-.33-.18-.18-.31-.31-.33-.33-.2-.19-1.97-1.95-6.87-6.82-.7-.69-1.4-1.39-2.1-2.08C3.85,9.52.73,6.43.43,6.16c-.02-.02-.11-.09-.19-.21-.22-.31-.25-.66-.25-.82V0l3.01,3.01v1.53c2.49,2.48,4.99,4.96,7.49,7.43l2.1,2.08c4.39,4.34,7.58,7.52,7.9,7.84.07.07.23.24.34.51.1.25.11.46.11.55h0Z"/>
    <path class="cls-2" d="M20.95,0v5.12c0,.12-.02.28-.08.44-.11.3-.29.5-.37.58-.31.31-2.84,2.86-6.34,6.34-.7-.69-1.4-1.38-2.1-2.07,1.74-1.74,3.49-3.49,5.23-5.23l.75-.75v-1.52l2.9-2.91Z"/>
    <path class="cls-1" d="M28.57,20.84V3.71l-2.24,2.24v16.82h11.72v-1.93h-9.49Z"/>
    <path class="cls-1" d="M39.26,15.68c0-4.47,3.03-7.22,6.9-7.22s6.87,2.92,6.65,7.53h-11.42c.11,3.32,2.02,5.07,4.85,5.07,2.05,0,3.68-1.07,4.36-3.11l1.96.27c-.93,3.11-3.57,4.55-6.35,4.55-4.01,0-6.95-2.56-6.95-7.09h0ZM50.65,14.56c-.19-2.89-2.15-4.42-4.47-4.42-2.45,0-4.36,1.53-4.74,4.42h9.21Z"/>
    <path class="cls-1" d="M61.23,16.74l-4.77,6.03h-2.54l6.13-7.36-5.45-6.44h2.62l4.06,5.07,4.01-5.07h2.54l-5.34,6.38,6.22,7.42h-2.65l-4.82-6.03h0Z"/>
    <path class="cls-1" d="M69.79,15.6c0-4.55,3.14-7.17,7.09-7.17s7.06,2.62,7.06,7.17-3.14,7.17-7.06,7.17-7.09-2.62-7.09-7.17ZM76.88,20.94c2.7,0,4.85-1.94,4.85-5.34s-2.15-5.37-4.85-5.37-4.88,1.93-4.88,5.37,2.15,5.34,4.88,5.34Z"/>
    <path class="cls-1" d="M97.87,5.55v6.06c-.98-2.07-2.81-3.19-5.1-3.19-3.63,0-6.52,2.65-6.52,7.14s2.73,7.2,6.46,7.2c2.29,0,4.14-1.15,5.15-3.22v2.94h2.13V3.43l-2.13,2.13ZM97.87,15.65c0,3.46-2.07,5.26-4.77,5.26s-4.63-1.91-4.63-5.34,2.07-5.34,4.74-5.34,4.66,1.83,4.66,5.26v.16Z"/>
    <path class="cls-1" d="M113.93,5.55v6.06c-.98-2.07-2.81-3.19-5.1-3.19-3.63,0-6.52,2.65-6.52,7.14s2.73,7.2,6.46,7.2c2.29,0,4.14-1.15,5.15-3.22v2.94h2.13V3.43l-2.13,2.13ZM113.93,15.65c0,3.46-2.07,5.26-4.77,5.26s-4.63-1.91-4.63-5.34,2.07-5.34,4.74-5.34,4.66,1.83,4.66,5.26v.16Z"/>
  </g>
</svg>